<?xml version="1.0" encoding="UTF-8" standalone="no"?><!DOCTYPE svg PUBLIC "-//W3C//DTD SVG 1.1//EN" "http://www.w3.org/Graphics/SVG/1.1/DTD/svg11.dtd"><svg width="100%" height="100%" viewBox="0 0 422 422" version="1.1" xmlns="http://www.w3.org/2000/svg" xmlns:xlink="http://www.w3.org/1999/xlink" xml:space="preserve" xmlns:serif="http://www.serif.com/" style="fill-rule:evenodd;clip-rule:evenodd;stroke-linejoin:round;stroke-miterlimit:2;"><path d="M133.551,398.605c0,0 -42.235,-15.379 -38.874,-57.064c2.132,-26.441 38.93,-40.02 54.02,-47.457c15.091,-7.438 44.802,-20.507 44.371,-41.095c-0.431,-20.588 -49.692,-25.439 -69.526,3.881c0,0 16.708,-1.832 20.696,2.371c0,0 -27.702,-3.665 -42.039,19.187c0,0 -1.382,3.779 1.744,6.043l4.958,1.186c0,0 -8.731,11.656 -32.984,4.211c-24.253,-7.445 -17.57,-22.536 -12.288,-26.524c5.282,-3.988 15.414,-9.917 17.139,-29.104c1.725,-19.187 10.995,-21.127 19.51,-31.583c8.516,-10.456 14.263,-20.028 27.487,-39.128c8.731,-12.612 19.941,-17.247 19.941,-17.247l-1.294,3.557c0,0 17.999,-17.509 76.856,-36.326c28.996,-9.27 41.804,-16.898 64.459,-36.541c0,0 -10.183,57.437 -64.459,78.041c0,0 41.069,0.289 75.993,-12.646c0,0 -14.092,35.504 -72.436,43.979c0,0 22.921,6.683 58.708,-6.683c0,0 -3.988,17.354 6.683,32.338c10.671,14.983 28.802,38.296 28.17,76.192c-0.632,37.896 -32.001,72.423 -64.212,91.791c-32.211,19.369 -66.211,25.875 -122.625,18.622Z" style="fill:url(#_Linear1);"/><path d="M80.905,270.793c0,0 -4.621,3.946 2.623,6.209c0,0 -3.934,-1.684 -2.623,-6.209Z" style="fill:#801337;"/><path d="M320.002,175.408c0,0 -3.797,65.578 -62.745,99.768c0,0 -24.421,16.169 -58.275,22.4c0,0 18.48,-18.25 9.836,-42.813c-3.872,-11.003 -17.396,-13.697 -17.396,-13.697c0,0 13.649,20.837 2.331,35.524c-11.318,14.687 -81.671,63.766 -81.671,63.766l-0.25,0.639c0,0 -11.049,37.053 11.857,50.123l4.449,4.533l5.342,3.046l19.386,-27.178l154.276,-98.696l20.379,-66.191c0,0 -5.049,-24.699 -7.519,-31.224" style="fill:#fc2b71;"/><path d="M302.515,161.394c0,0 40.556,5.287 47.428,-44.06c0,0 -7.411,10.747 -27.487,15.328c0,0 -1.617,15.29 -19.941,28.732Z" style="fill:#e4e953;"/><path d="M302.515,161.559c0,0 30.451,-5.252 47.428,-44.224c0,0 -0.404,18.696 -13.609,32.036c-13.204,13.339 -28.969,12.79 -33.82,12.189Z" style="fill:#a9ba2f;"/><path d="M272.99,136.34c0,0 119.006,-21.392 76.946,-130.352c0,0 -4.581,31.535 -50.5,66.244c0,0 5.961,35.036 -26.446,64.108Z" style="fill:#e4e953;"/><path d="M150.435,132.896c0,0 23.158,-20.842 49.475,-26.527c0,0 -7.579,-23.79 18.948,-51.79c0,0 -59.159,11.79 -68.422,78.317Z" style="fill:#edee5b;"/><path d="M218.857,54.579c0,0 -23.975,9.87 -34.064,40.655c0,0 -28.749,16.247 -34.358,37.662c0,0 25.545,-21.038 49.69,-26.419c0,0 -7.171,-23.458 18.732,-51.898Z" style="fill:#adbd2e;"/><path d="M91.575,195.805c0,0 -1.347,-63.329 49.011,-98.528c0,0 -11.284,15.16 -10.779,48.339c0,0 -22.906,14.017 -38.232,50.189Z" style="fill:#edee5b;"/><path d="M91.572,195.805c0,0 3.708,-31.167 30.009,-56.943c0,0 -1.763,-18.315 19.006,-41.585c0,0 -10.686,15.819 -10.509,48.457c0,0 -20.479,11.88 -38.506,50.071Z" style="fill:#adbc2e;"/><path d="M213.985,101.701c0,0 65.685,-17.516 71.749,-56.927c0,0 -0.674,-19.425 -9.769,-27.846c0,0 7.242,33.629 -61.98,84.774Z" style="fill:#e6ea55;"/><path d="M213.985,101.701c0,0 56.605,-23.381 64.366,-56.15c0,0 1.743,-20.719 -2.274,-28.624c0,0 17.758,16.876 6.202,40.935c-11.555,24.059 -51.045,39.732 -68.294,43.839Z" style="fill:#a9bb2f;"/><path d="M272.99,136.34c0,0 79.859,-36.859 77.002,-130.352c0,0 24.175,31.249 -2.47,83.882c0,0 -20.815,39.416 -74.532,46.47Z" style="fill:#a9ba2f;"/><path d="M106.684,194.369c0,0 20.852,-35.256 67.784,-47.071c46.415,-11.685 105.596,-60.028 112.198,-68.786l1.064,-1.54c0,0 -24.473,23.171 -57.737,34.278c-49.897,16.66 -64.93,23.64 -83.147,38.019c0,0 0.397,-2.103 0.99,-3.318c0,0 -11.137,5.536 -21.107,19c-10.089,13.625 -20.045,29.419 -20.045,29.419Z" style="fill:#fc2b71;"/><path d="M133.385,398.585c0,0 74.053,23.283 137.65,-23.93c63.597,-47.213 81.599,-133.829 48.967,-199.248c0,0 25.527,88.532 -89.739,142.481c0,0 -104.018,34.022 -96.878,80.697Z" style="fill:#be124c;"/><path d="M133.387,398.643c0,0 -1.031,-5.859 0.344,-10.742c0,0 91.476,9.224 159.688,-68.041c0,0 43.618,-44.855 34.355,-125.432c0,0 31.369,80.48 -27.369,152.481c-58.738,72.002 -146.661,60.519 -167.017,51.733Z" style="fill:#9c0f41;"/><path d="M132.526,397.896c0,0 -21.791,-12.85 -17.109,-38.743c4.625,-25.574 30.169,-41.717 40.603,-48.012c10.434,-6.295 35.539,-24.865 41.133,-33.027c5.951,-8.682 9.848,-25.618 -5.738,-37.048c0,0 12.912,22.306 -17.011,40.76c-29.923,18.454 -45.014,20.868 -69.935,46.652c-24.921,25.784 4.345,62.859 28.056,69.418Z" style="fill:#fff;"/><path d="M77.185,287.052c0,0 -13.688,-0.687 -14.732,-15.822c-0.421,-6.105 6.249,-6.409 17.757,-21.885c6.105,-8.211 2.617,-20.2 7.249,-26.727c4.632,-6.526 6.059,-7.27 6.059,-7.27c0,0 -2.311,5.911 0.497,6.843c2.417,0.802 -1.039,-8.347 8.826,-18.005c9.865,-9.658 10.732,-10.487 10.732,-10.487c0,0 -3.216,6.446 -1.832,8.804c0.775,1.321 7.471,-9.417 11.805,-14.556c14.241,-16.884 17.777,-18.161 31.251,-26.603c13.086,-8.199 26.249,-11.676 33.795,-14.047c0,0 -23.749,11.376 -38.741,24.166c-20.314,17.331 -31.479,32.851 -28.305,33.071c5.002,0.347 3.988,-4.096 21.774,-7.977c0,0 -25.71,14.198 -41.931,27.997c-9.917,8.436 -9.845,10.229 -10.995,19.108c-0.91,7.027 -12.827,14.228 -19.295,24.576c-6.467,10.348 2.452,16.154 6.087,18.813Z" style="fill:#fff;"/><g><path d="M95.076,244.251c0,0 4.18,-10.023 15.528,-6.37c0,0 -6.099,8.773 -15.528,6.37Z" style="fill:#fff;"/><circle cx="103.004" cy="353.253" r="0.797"/><circle cx="184.6" cy="279.306" r="0.797"/><circle cx="133.642" cy="316.994" r="0.797"/><circle cx="112.175" cy="339.342" r="0.797"/><circle cx="149.695" cy="308.284" r="0.797"/><circle cx="175.704" cy="289.092" r="0.797"/><circle cx="197.1" cy="273.453" r="0.797"/><circle cx="196.216" cy="258.907" r="0.797"/><circle cx="110.581" cy="352.403" r="0.797"/><circle cx="139.127" cy="304.664" r="0.797"/><circle cx="165.334" cy="299.847" r="0.797"/><circle cx="152.301" cy="297.014" r="0.797"/><circle cx="115.47" cy="325.913" r="0.797"/><circle cx="122.303" cy="333.047" r="0.797"/><circle cx="102.207" cy="342.646" r="0.797"/><circle cx="111.927" cy="371.476" r="0.797"/><circle cx="103.004" cy="363.77" r="0.797"/><circle cx="116.15" cy="384.622" r="0.797"/></g><defs><linearGradient id="_Linear1" x1="0" y1="0" x2="1" y2="0" gradientUnits="userSpaceOnUse" gradientTransform="matrix(261.808792,0,0,324.517843,58.594977,239.230144)"><stop offset="0" style="stop-color:#fd5290;stop-opacity:1"/><stop offset="1" style="stop-color:#9c0f41;stop-opacity:1"/></linearGradient></defs></svg>
